<svg width="375" height="333" viewBox="0 0 375 333" fill="none" xmlns="http://www.w3.org/2000/svg">
<path fill-rule="evenodd" clip-rule="evenodd" d="M470.454 332.759L317.382 324.972C282.375 321.238 212.361 313.771 187.382 289.348C162.403 264.925 182.46 223.548 202.516 182.17C222.573 140.793 242.629 99.4153 206.392 79.2315C170.154 59.0476 77.6223 60.0575 31.3564 60.5624L-21.8583 61.6157L-2.55188 4.68784L289.079 -53.3786L315.664 -37.8559C322.524 -23.5252 447.313 -16.165 461.033 12.4963C474.753 41.1576 444.264 99.717 457.984 128.378C471.704 157.04 442.089 182.414 455.809 211.075C469.529 239.736 439.999 261.896 446.859 276.226L453.719 290.557L470.454 332.759Z" fill="#FFC7B8"/>
</svg>
