<svg width="375" height="333" viewBox="0 0 375 333" fill="none" xmlns="http://www.w3.org/2000/svg">
<path fill-rule="evenodd" clip-rule="evenodd" d="M515.657 332.686L364.022 320.26C329.275 315.369 229.063 305.822 203.5 279.5C177.937 253.178 205.63 216.362 224 173.5C242.37 130.638 282.134 81.497 245.588 59.31C209.043 37.1231 117.582 35.6108 71.8515 34.8546L-28.9379 36.5414L-16.7599 -27.3684L322.664 -77.5445L349.501 -60.5169C356.79 -45.2885 480.443 -34.0965 495.022 -3.63972C509.602 26.8171 481.524 87.4183 496.104 117.875C510.683 148.332 482.296 174.134 496.876 204.591C511.455 235.048 483.038 257.48 490.328 272.709L497.617 287.937L515.657 332.686Z" fill="#FFA09A"/>
</svg>
