<svg width="375" height="587" viewBox="0 0 375 587" fill="none" xmlns="http://www.w3.org/2000/svg">
<path fill-rule="evenodd" clip-rule="evenodd" d="M-71.7214 65.4033L-50.8207 50.6342C-30.5231 35.6964 10.6753 5.98952 47.6074 0.860818C85.1426 -4.09915 117.809 15.3503 147.915 49.5468C178.021 83.7432 205.568 132.686 238.234 152.136C270.9 171.585 309.288 161.71 349.633 136.919C389.978 112.127 432.883 72.5892 464.696 96.9543C496.508 121.319 517.229 209.588 547.938 243.953C578.044 278.149 617.536 258.274 636.981 248.252L657.028 238.398L594.009 582.968L517.023 582.968C500.139 578.243 446.086 592.586 411.714 582.968C376.739 573.181 341.918 592.586 307.545 582.968C273.173 573.349 272.606 592.586 238.234 582.968C203.861 573.349 154.13 592.586 119.758 582.968C85.3855 573.349 25.9896 592.586 -8.38283 582.968C-42.7553 573.349 -52.1042 189.935 -87.0797 180.148C-121.452 170.53 -52.7073 163.503 -69.592 158.778L-87.0797 153.885L-71.7214 65.4033Z" fill="#FFC7B8"/>
</svg>
