<svg width="375" height="575" viewBox="0 0 375 575" fill="none" xmlns="http://www.w3.org/2000/svg">
<path fill-rule="evenodd" clip-rule="evenodd" d="M-84.3425 65.7117L-63.4418 50.9426C-43.1442 36.0048 -1.94582 6.29787 34.9863 1.16917C72.5215 -3.79079 105.187 15.6587 135.294 49.8551C165.4 84.0515 192.946 132.995 225.612 152.444C258.278 171.894 296.667 162.018 337.012 137.227C377.357 112.436 420.262 72.8975 452.075 97.2626C483.887 121.628 504.608 209.896 535.317 244.261C565.423 278.458 604.915 258.582 624.36 248.56L644.407 238.706L581.388 583.276L504.402 583.276C487.518 578.551 433.465 592.894 399.093 583.276C364.118 573.489 329.297 592.894 294.924 583.276C260.552 573.658 259.985 592.894 225.612 583.276C191.24 573.658 141.509 592.894 107.137 583.276C72.7644 573.658 13.3685 592.894 -21.0039 583.276C-55.3764 573.658 -64.7253 190.243 -99.7008 180.457C-134.073 170.838 -65.3284 163.811 -82.2131 159.087L-99.7008 154.193L-84.3425 65.7117Z" fill="#FFA09A"/>
</svg>
