<svg width="1440" height="1074" viewBox="0 0 1440 1074" fill="none" xmlns="http://www.w3.org/2000/svg">
<path fill-rule="evenodd" clip-rule="evenodd" d="M1481.98 1073.57L996.818 1056.13C885.997 1045.42 664.354 1023.99 586.783 941.394C509.212 858.802 575.712 715.048 642.213 571.295C708.713 427.541 775.213 283.788 661.624 216.486C548.035 149.185 254.357 158.335 107.518 162.91L-61.4082 169.8L3.78683 -27.4705L933.161 -245.355L1016.45 -193.517C1037.22 -144.576 1432.67 -126.873 1474.23 -28.9902C1515.78 68.8922 1414.99 272.468 1456.55 370.35C1498.1 468.233 1402.37 557.448 1443.93 655.33C1485.48 753.213 1390.25 831.351 1411.02 880.292L1431.8 929.234L1481.98 1073.57Z" fill="#FFC7B8"/>
</svg>
