<svg width="782" height="165" viewBox="0 0 782 165" fill="none" xmlns="http://www.w3.org/2000/svg">
<path fill-rule="evenodd" clip-rule="evenodd" d="M0 155.735L7.16833 158.979C14.3367 162.224 28.6733 168.712 43.6617 162.224C57.9983 155.735 72.335 136.268 86.6717 116.801C101.66 97.3341 115.997 77.8673 130.333 84.3562C144.67 90.8452 159.007 123.29 173.995 126.534C188.332 129.779 202.668 103.823 217.005 103.823C231.993 103.823 246.33 129.779 260.667 146.001C275.003 162.224 289.34 168.712 304.328 162.224C318.665 155.735 333.002 136.268 347.338 110.312C362.327 84.3562 376.663 51.9115 391 42.1781C405.337 32.4447 419.673 45.4226 434.662 61.6449C448.998 77.8673 463.335 97.3341 477.672 100.579C492.66 103.823 506.997 90.8452 521.333 97.3341C535.67 103.823 550.007 129.779 564.995 146.001C579.332 162.224 593.668 168.712 608.005 152.49C622.993 136.268 637.33 97.3341 651.667 81.1118C666.003 64.8894 680.34 71.3783 695.328 87.6007C709.665 103.823 724.002 129.779 738.338 139.512C753.327 149.246 767.663 142.757 774.832 139.512L782 136.268V0H774.832C767.663 0 753.327 0 738.338 0C724.002 0 709.665 0 695.328 0C680.34 0 666.003 0 651.667 0C637.33 0 622.993 0 608.005 0C593.668 0 579.332 0 564.995 0C550.007 0 535.67 0 521.333 0C506.997 0 492.66 0 477.672 0C463.335 0 448.998 0 434.662 0C419.673 0 405.337 0 391 0C376.663 0 362.327 0 347.338 0C333.002 0 318.665 0 304.328 0C289.34 0 275.003 0 260.667 0C246.33 0 231.993 0 217.005 0C202.668 0 188.332 0 173.995 0C159.007 0 144.67 0 130.333 0C115.997 0 101.66 0 86.6717 0C72.335 0 57.9983 0 43.6617 0C28.6733 0 14.3367 0 7.16833 0H0V155.735Z" fill="#FFF6E7"/>
</svg>
