<svg width="1440" height="999" viewBox="0 0 1440 999" fill="none" xmlns="http://www.w3.org/2000/svg">
<path fill-rule="evenodd" clip-rule="evenodd" d="M1527.54 998.091L1090.96 965.991C991.026 952.197 791.155 924.609 718.826 842.876C646.497 761.144 701.71 625.267 756.923 489.39C812.136 353.513 867.349 217.637 763.134 149.441C658.919 81.2447 395.277 80.7291 263.456 80.4712L-27.2516 90.4671L11.2104 -111.429L992.544 -285.262L1069.03 -232.868C1089.26 -185.233 1445.21 -155.72 1485.66 -60.4517C1526.1 34.8167 1441.97 227.028 1482.41 322.297C1522.85 417.565 1439.65 500.168 1480.09 595.436C1520.54 690.705 1437.42 762.691 1457.65 810.325L1477.87 857.959L1527.54 998.091Z" fill="#FFA09A"/>
</svg>
