<svg width="744" height="576" viewBox="0 0 744 576" fill="none" xmlns="http://www.w3.org/2000/svg">
<path fill-rule="evenodd" clip-rule="evenodd" d="M-121.639 70.133L-87.3078 54.3916C-53.9668 38.4703 13.7058 6.8075 74.3706 1.34112C136.026 -3.9454 189.683 16.7846 239.136 53.2325C288.589 89.6804 333.837 141.846 387.494 162.576C441.151 183.306 504.208 172.78 570.479 146.357C636.75 119.933 707.226 77.792 759.481 103.761C811.737 129.731 845.773 223.811 896.216 260.438C945.669 296.886 1010.54 275.702 1042.48 265.02L1075.41 254.518L971.893 621.773L845.435 621.773C817.7 616.737 728.914 632.025 672.454 621.773C615.003 611.342 557.806 632.025 501.345 621.773C444.885 611.522 443.954 632.025 387.494 621.773C331.034 611.522 249.346 632.025 192.885 621.773C136.425 611.522 38.8612 632.025 -17.5991 621.773C-74.0594 611.522 -89.4161 202.864 -146.867 192.433C-203.327 182.181 -90.4066 174.692 -118.142 169.656L-146.867 164.44L-121.639 70.133Z" fill="#FFC7B8"/>
</svg>
