<svg width="744" height="549" viewBox="0 0 744 549" fill="none" xmlns="http://www.w3.org/2000/svg">
<path fill-rule="evenodd" clip-rule="evenodd" d="M-142.371 70.1074L-108.039 54.3659C-74.6985 38.4446 -7.02593 6.78186 53.6389 1.31549C115.294 -3.97103 168.952 16.759 218.404 53.2069C267.857 89.6547 313.105 141.82 366.762 162.55C420.419 183.28 483.476 172.755 549.747 146.331C616.018 119.908 686.494 77.7664 738.75 103.736C791.005 129.705 825.041 223.785 875.484 260.413C924.937 296.86 989.806 275.676 1021.75 264.994L1054.68 254.492L951.161 621.748L824.703 621.748C796.969 616.712 708.182 631.999 651.722 621.748C594.271 611.316 537.074 631.999 480.614 621.747C424.153 611.496 423.222 631.999 366.762 621.748C310.302 611.496 228.614 631.999 172.154 621.748C115.693 611.496 18.1294 631.999 -38.3308 621.748C-94.7911 611.496 -110.148 202.838 -167.599 192.407C-224.059 182.155 -111.138 174.666 -138.873 169.63L-167.599 164.414L-142.371 70.1074Z" fill="#FFA09A"/>
</svg>
