<svg width="1440" height="408" viewBox="0 0 1440 408" fill="none" xmlns="http://www.w3.org/2000/svg">
<g clip-path="url(#clip0_251_6075)">
<path fill-rule="evenodd" clip-rule="evenodd" d="M-403.282 591.109L-374.823 589.959C-348.066 589.487 -292.85 587.865 -269.279 547.907C-245.709 507.948 -253.783 429.652 -230.212 389.693C-206.642 349.734 -151.426 348.112 -80.3872 365.658C-9.34866 383.205 77.5125 419.92 120.07 402.963C162.628 386.006 160.883 315.378 203.441 298.421C245.999 281.464 332.86 318.179 375.418 301.222C417.976 284.266 416.23 213.637 446.13 181.346C476.03 149.054 537.575 155.099 592.791 153.477C648.007 151.855 696.894 142.566 752.11 140.944C807.326 139.322 868.87 145.368 901.935 116.91C934.999 88.4519 939.583 25.4907 975.812 0.866576C1012.04 -23.7576 1079.91 -10.0448 1116.14 -34.669C1152.37 -59.2931 1156.96 -122.254 1196.35 -143.045C1235.74 -163.835 1309.95 -142.455 1365.16 -144.077C1420.38 -145.699 1456.61 -170.323 1511.82 -171.945C1567.04 -173.567 1781.14 -149.392 1819.1 -139.041L1949.79 -330.189L1525.57 -360.828L1505.15 -352.689C1483.02 -343.871 1440.46 -326.915 1397.9 -309.958C1355.34 -293.001 1219.76 -283.681 1177.21 -266.724C1134.65 -249.767 1112.86 -272.495 1070.3 -255.539C1027.74 -238.582 974.121 -257.979 931.563 -241.023C889.005 -224.066 801.913 -233.16 759.355 -216.203C716.797 -199.246 630.511 -222.028 587.954 -205.071C545.396 -188.114 494.818 -207.831 452.26 -190.874C409.702 -173.917 313.903 -188.902 271.345 -171.945C228.787 -154.988 207.826 -177.803 165.268 -160.846C122.71 -143.889 76.5919 -157.271 34.034 -140.314C-8.5239 -123.357 -120.689 -143.431 -163.247 -126.474C-205.805 -109.517 -238.968 -113.687 -281.526 -96.7301C-324.084 -79.7734 -277.027 119.445 -319.585 136.402C-362.143 153.359 -327.674 311.923 -370.231 328.879C-412.789 345.836 -369.776 383.433 -412.334 400.389C-454.892 417.346 -474.647 436.14 -495.075 444.279L-517.205 453.097L-403.282 591.109Z" fill="#FFC7B8"/>
<path fill-rule="evenodd" clip-rule="evenodd" d="M1374.55 -79.5206C1473.57 -95.0726 1570.34 -162.513 1658.83 -134.089C1744.1 -106.698 1670.69 -31.4976 1687.45 20.9874C1700.71 62.4987 1753.11 98.1642 1746.41 140.125C1738.47 189.83 1729.13 252.756 1646.71 276.011C1562.6 299.743 1469.62 245.302 1374.55 245.045C1280.34 244.791 1189.53 296.143 1104.38 274.548C1019.79 253.095 1004.37 192.515 977.869 144.444C952.089 97.6811 910.13 44.9463 954.3 2.30887C997.957 -39.8341 1105.57 -44.0083 1190.15 -60.4776C1250.46 -72.22 1312.98 -69.8495 1374.55 -79.5206Z" fill="#FFC7B8"/>
</g>
<defs>
<clipPath id="clip0_251_6075">
<rect width="1440" height="408" fill="white"/>
</clipPath>
</defs>
</svg>
