<svg width="1440" height="898" viewBox="0 0 1440 898" fill="none" xmlns="http://www.w3.org/2000/svg">
<path fill-rule="evenodd" clip-rule="evenodd" d="M-216.602 104.304L-161.626 80.7418C-108.236 56.9101 0.129479 9.51598 97.2738 1.33369C196.004 -6.5794 281.927 24.4502 361.117 79.0068C440.307 133.563 512.764 211.647 598.686 242.677C684.609 273.706 785.584 257.951 891.706 218.399C997.827 178.847 1110.68 115.768 1194.36 154.64C1278.04 193.512 1332.54 334.335 1413.32 389.161C1492.51 443.717 1596.38 412.008 1647.53 396.019L1700.26 380.299L1534.5 930.022L1332 930.022C1287.59 922.484 1145.41 945.366 1055 930.022C963.003 914.408 871.412 945.366 781 930.022C690.589 914.677 689.098 945.367 598.686 930.022C508.275 914.677 377.466 945.366 287.055 930.022C196.643 914.677 40.4115 945.367 -49.9999 930.022C-140.411 914.677 -165.002 302.981 -257 287.367C-347.411 272.022 -166.588 260.812 -211.001 253.274L-257 245.467L-216.602 104.304Z" fill="#FFC7B8"/>
</svg>
