<svg width="312" height="573" viewBox="0 0 312 573" fill="none" xmlns="http://www.w3.org/2000/svg">
<g clip-path="url(#clip0_514_6182)">
<path d="M0 0H312V552C312 563.598 302.598 573 291 573H0V0Z" fill="#FFF6E7"/>
<path fill-rule="evenodd" clip-rule="evenodd" d="M328.091 -74.2253C370.719 -68.0422 387.932 -12.8667 414.139 24.95C435.042 55.1117 462.647 82.3887 462.996 120.436C463.347 158.751 442.51 193.457 415.908 217.885C391.617 240.192 359.373 239.939 328.091 244.32C289.175 249.771 241.607 277.922 214.906 246.036C188.114 214.042 224.132 164.11 224.352 120.436C224.57 77.2832 196.37 33.3788 216.165 -3.7658C238.863 -46.3575 283.876 -80.6386 328.091 -74.2253Z" fill="#FFC7B8"/>
<path fill-rule="evenodd" clip-rule="evenodd" d="M356.091 -92.2253C398.719 -86.0422 415.932 -30.8667 442.139 6.94995C463.042 37.1117 490.647 64.3887 490.996 102.436C491.347 140.751 470.51 175.457 443.908 199.885C419.617 222.192 387.373 221.939 356.091 226.32C317.175 231.771 269.607 259.922 242.906 228.036C216.114 196.042 252.132 146.11 252.352 102.436C252.57 59.2832 224.37 15.3788 244.165 -21.7658C266.863 -64.3575 311.876 -98.6386 356.091 -92.2253Z" fill="#FFA09A"/>
<path fill-rule="evenodd" clip-rule="evenodd" d="M21.0911 347.775C63.7193 353.958 80.9317 409.133 107.139 446.95C128.042 477.112 155.647 504.389 155.996 542.436C156.347 580.751 135.51 615.457 108.908 639.885C84.6169 662.192 52.3733 661.939 21.0911 666.32C-17.8251 671.771 -65.3934 699.922 -92.0944 668.036C-118.886 636.042 -82.8684 586.11 -82.6481 542.436C-82.4305 499.283 -110.63 455.379 -90.8345 418.234C-68.1365 375.643 -23.1238 341.361 21.0911 347.775Z" fill="#FFC7B8"/>
<path fill-rule="evenodd" clip-rule="evenodd" d="M-3.52337 363.692C39.9309 369.212 57.4769 418.476 84.1925 452.241C105.5 479.171 133.64 503.526 133.996 537.497C134.354 571.706 113.113 602.694 85.9956 624.505C61.2335 644.422 28.365 644.196 -3.52337 648.107C-43.1938 652.974 -91.684 678.109 -118.902 649.639C-146.213 621.074 -109.498 576.491 -109.273 537.497C-109.051 498.967 -137.797 459.767 -117.618 426.602C-94.4803 388.574 -48.5952 357.966 -3.52337 363.692Z" fill="#FFA09A"/>
</g>
<defs>
<clipPath id="clip0_514_6182">
<path d="M0 0H312V552C312 563.598 302.598 573 291 573H0V0Z" fill="white"/>
</clipPath>
</defs>
</svg>
