<svg width="1440" height="375" viewBox="0 0 1440 375" fill="none" xmlns="http://www.w3.org/2000/svg">
<g clip-path="url(#clip0_251_6075)">
<path fill-rule="evenodd" clip-rule="evenodd" d="M-424.522 557.445L-395.802 556.611C-368.785 556.455 -313.048 555.464 -290.259 514.558C-267.47 473.652 -277.63 392.83 -254.841 351.923C-232.052 311.017 -176.315 310.026 -104.103 328.994C-31.8919 347.961 56.7939 386.887 99.3518 369.93C141.91 352.973 138.34 280.134 180.897 263.178C223.455 246.221 312.141 285.146 354.699 268.19C397.257 251.233 393.687 178.394 423.065 145.471C452.444 112.548 514.771 119.54 570.508 118.55C626.245 117.559 675.393 108.586 731.13 107.596C786.868 106.605 849.195 113.598 881.868 84.6663C914.541 55.7348 917.561 -9.12106 953.529 -34.061C989.497 -59.0009 1058.41 -44.0251 1094.38 -68.965C1130.35 -93.9049 1133.37 -158.761 1172.63 -179.709C1211.9 -200.657 1287.4 -177.698 1343.14 -178.689C1398.88 -179.679 1434.85 -204.619 1490.58 -205.61C1546.32 -206.6 1763.23 -179.031 1801.83 -167.891L1928.96 -363.35L1499.64 -400.177L1479.21 -392.038C1457.08 -383.22 1414.53 -366.263 1371.97 -349.307C1329.41 -332.35 1192.69 -324.414 1150.13 -307.458C1107.57 -290.501 1084.98 -314.203 1042.42 -297.246C999.864 -280.289 945.199 -300.95 902.641 -283.993C860.083 -267.037 771.87 -277.488 729.312 -260.531C686.755 -243.575 599.007 -268.128 556.449 -251.171C513.891 -234.214 462.294 -255.166 419.736 -238.209C377.178 -221.252 280.018 -237.884 237.461 -220.928C194.903 -203.971 173.144 -227.752 130.586 -210.795C88.0282 -193.838 41.0977 -208.204 -1.46015 -191.247C-44.018 -174.29 -157.84 -196.371 -200.398 -179.414C-242.956 -162.457 -276.564 -167.166 -319.122 -150.209C-361.68 -133.252 -309.046 72.7219 -351.604 89.6787C-394.162 106.635 -355.285 270.539 -397.843 287.496C-440.401 304.453 -395.987 343.746 -438.545 360.702C-481.103 377.659 -500.579 396.791 -521.007 404.93L-543.137 413.748L-424.522 557.445Z" fill="#FFA09A"/>
<path fill-rule="evenodd" clip-rule="evenodd" d="M1391.06 -85.0436C1485.69 -99.1984 1578.17 -160.581 1662.74 -134.71C1744.23 -109.779 1674.07 -41.3346 1690.09 6.43538C1702.76 44.2175 1752.84 76.679 1746.44 114.87C1738.85 160.11 1729.92 217.383 1651.16 238.549C1570.78 260.149 1481.92 210.598 1391.06 210.365C1301.03 210.134 1214.25 256.872 1132.87 237.218C1052.03 217.691 1037.29 162.554 1011.97 118.801C987.332 76.2393 947.233 28.2419 989.444 -10.5652C1031.17 -48.9223 1134.01 -52.7215 1214.84 -67.7113C1272.47 -78.3988 1332.22 -76.2412 1391.06 -85.0436Z" fill="#FFA09A"/>
<path fill-rule="evenodd" clip-rule="evenodd" d="M-424.522 557.445L-395.802 556.611C-368.785 556.455 -313.048 555.464 -290.259 514.558C-267.47 473.652 -277.63 392.83 -254.841 351.923C-232.052 311.017 -176.315 310.026 -104.103 328.994C-31.8919 347.961 56.7939 386.887 99.3518 369.93C141.91 352.973 138.34 280.134 180.897 263.178C223.455 246.221 312.141 285.146 354.699 268.19C397.257 251.233 393.687 178.394 423.065 145.471C452.444 112.548 514.771 119.54 570.508 118.55C626.245 117.559 675.393 108.586 731.13 107.596C786.868 106.605 849.195 113.598 881.868 84.6663C914.541 55.7348 917.561 -9.12106 953.529 -34.061C989.497 -59.0009 1058.41 -44.0251 1094.38 -68.965C1130.35 -93.9049 1133.37 -158.761 1172.63 -179.709C1211.9 -200.657 1287.4 -177.698 1343.14 -178.689C1398.88 -179.679 1434.85 -204.619 1490.58 -205.61C1546.32 -206.6 1763.23 -179.031 1801.83 -167.891L1928.96 -363.35L1499.64 -400.177L1479.21 -392.038C1457.08 -383.22 1414.53 -366.263 1371.97 -349.307C1329.41 -332.35 1192.69 -324.414 1150.13 -307.458C1107.57 -290.501 1084.98 -314.203 1042.42 -297.246C999.864 -280.289 945.199 -300.95 902.641 -283.993C860.083 -267.037 771.87 -277.488 729.312 -260.531C686.755 -243.575 599.007 -268.128 556.449 -251.171C513.891 -234.214 462.294 -255.166 419.736 -238.209C377.178 -221.252 280.018 -237.884 237.461 -220.928C194.903 -203.971 173.144 -227.752 130.586 -210.795C88.0282 -193.838 41.0977 -208.204 -1.46015 -191.247C-44.018 -174.29 -157.84 -196.371 -200.398 -179.414C-242.956 -162.457 -276.564 -167.166 -319.122 -150.209C-361.68 -133.252 -309.046 72.7219 -351.604 89.6787C-394.162 106.635 -355.285 270.539 -397.843 287.496C-440.401 304.453 -395.987 343.746 -438.545 360.702C-481.103 377.659 -500.579 396.791 -521.007 404.93L-543.137 413.748L-424.522 557.445Z" fill="#FFA09A"/>
</g>
<defs>
<clipPath id="clip0_251_6075">
<rect width="1440" height="375" fill="white"/>
</clipPath>
</defs>
</svg>
