<svg width="1440" height="858" viewBox="0 0 1440 858" fill="none" xmlns="http://www.w3.org/2000/svg">
<path fill-rule="evenodd" clip-rule="evenodd" d="M-249.801 104.681L-194.824 81.1182C-141.435 57.2866 -33.0688 9.89244 64.0756 1.71015C162.806 -6.20293 248.729 24.8266 327.919 79.3833C407.108 133.94 479.565 212.024 565.488 243.053C651.411 274.083 752.386 258.327 858.507 218.776C964.629 179.224 1077.48 116.145 1161.16 155.017C1244.84 193.889 1299.34 334.711 1380.12 389.537C1459.31 444.094 1563.19 412.385 1614.33 396.395L1667.06 380.675L1501.3 930.398L1298.8 930.398C1254.39 922.86 1112.21 945.743 1021.8 930.398C929.804 914.784 838.213 945.743 747.802 930.398C657.39 915.053 655.9 945.743 565.488 930.398C475.077 915.053 344.268 945.743 253.856 930.398C163.445 915.053 7.21326 945.743 -83.1981 930.398C-173.609 915.053 -198.201 303.358 -290.198 287.744C-380.609 272.399 -199.787 261.188 -244.199 253.65L-290.198 245.843L-249.801 104.681Z" fill="#FFA09A"/>
</svg>
