<svg width="1440" height="898" viewBox="0 0 1440 898" fill="none" xmlns="http://www.w3.org/2000/svg">
<path fill-rule="evenodd" clip-rule="evenodd" d="M-216.601 104.304L-161.625 80.7418C-108.235 56.9101 0.130462 9.51598 97.2748 1.33369C196.005 -6.5794 281.928 24.4502 361.118 79.0068C440.308 133.563 512.765 211.647 598.687 242.677C684.61 273.706 785.585 257.951 891.707 218.399C997.828 178.847 1110.68 115.768 1194.36 154.64C1278.04 193.512 1332.54 334.335 1413.32 389.161C1492.51 443.717 1596.38 412.008 1647.53 396.019L1700.26 380.299L1534.5 930.022L1332 930.022C1287.59 922.484 1145.41 945.367 1055 930.022C963.004 914.408 871.412 945.366 781.001 930.022C690.59 914.677 689.099 945.367 598.687 930.022C508.276 914.677 377.467 945.366 287.056 930.022C196.644 914.677 40.4125 945.367 -49.9989 930.022C-140.41 914.677 -165.001 302.981 -256.999 287.367C-347.41 272.022 -166.588 260.812 -211 253.274L-256.999 245.467L-216.601 104.304Z" fill="#FFC7B8"/>
</svg>
