<svg width="1440" height="1076" viewBox="0 0 1440 1076" fill="none" xmlns="http://www.w3.org/2000/svg">
<path fill-rule="evenodd" clip-rule="evenodd" d="M1443.93 1075.5L996.818 1056.13C885.996 1045.42 664.354 1023.99 586.783 941.393C509.212 858.801 575.712 715.048 642.212 571.294C708.713 427.54 775.213 283.788 661.624 216.486C548.035 149.185 254.357 158.335 107.518 162.91L-1.49979 168L-1.49981 -2.99994L968 -3.0005L1445.5 -3.00075C1445.5 57.9993 1445.5 35.4993 1445.5 144.499C1445.5 253.499 1445.5 237.499 1445.5 352.999C1445.5 459.499 1445.5 544.499 1443.93 655.329C1445.5 760.499 1443.93 819.999 1443.93 880.499L1443.93 928.999L1443.93 1075.5Z" fill="#FFC7B8"/>
</svg>
