<svg width="1440" height="858" viewBox="0 0 1440 858" fill="none" xmlns="http://www.w3.org/2000/svg">
<path fill-rule="evenodd" clip-rule="evenodd" d="M-249.8 104.681L-194.824 81.1182C-141.434 57.2866 -33.0678 9.89244 64.0765 1.71015C162.807 -6.20293 248.73 24.8266 327.92 79.3833C407.109 133.94 479.566 212.024 565.489 243.053C651.412 274.083 752.387 258.327 858.508 218.776C964.63 179.224 1077.48 116.145 1161.16 155.017C1244.84 193.889 1299.34 334.711 1380.12 389.537C1459.31 444.094 1563.19 412.385 1614.33 396.395L1667.06 380.675L1501.3 930.398L1298.8 930.398C1254.39 922.86 1112.21 945.743 1021.8 930.398C929.805 914.784 838.214 945.743 747.803 930.398C657.391 915.053 655.901 945.743 565.489 930.398C475.078 915.053 344.269 945.743 253.857 930.398C163.446 915.053 7.21424 945.743 -83.1971 930.398C-173.609 915.053 -198.2 303.358 -290.197 287.744C-380.608 272.399 -199.786 261.188 -244.198 253.65L-290.197 245.843L-249.8 104.681Z" fill="#FFA09A"/>
</svg>
