<svg width="28" height="27" viewBox="0 0 28 27" fill="none" xmlns="http://www.w3.org/2000/svg">
<path d="M14 25.3333H26.75M1.25 25.3333H3.62227C4.31528 25.3333 4.66178 25.3333 4.98786 25.255C5.27696 25.1856 5.55334 25.0712 5.80685 24.9158C6.09278 24.7406 6.33779 24.4956 6.82782 24.0055L24.625 6.20833C25.7986 5.03472 25.7986 3.13193 24.625 1.95833C23.4514 0.784723 21.5486 0.784725 20.375 1.95833L2.57779 19.7555C2.08775 20.2456 1.84274 20.4906 1.66752 20.7765C1.51217 21.03 1.39769 21.3064 1.32829 21.5955C1.25 21.9216 1.25 22.2681 1.25 22.9611V25.3333Z" stroke="#4B5563" stroke-width="1.5" stroke-linecap="round" stroke-linejoin="round"/>
</svg>
