<svg width="41" height="41" viewBox="0 0 41 41" fill="none" xmlns="http://www.w3.org/2000/svg">
<path d="M10.25 3.41663L5.125 10.25V34.1666C5.125 35.0728 5.48497 35.9418 6.12572 36.5826C6.76647 37.2233 7.63551 37.5833 8.54167 37.5833H32.4583C33.3645 37.5833 34.2335 37.2233 34.8743 36.5826C35.515 35.9418 35.875 35.0728 35.875 34.1666V10.25L30.75 3.41663H10.25Z" stroke="#FFF6E7" stroke-width="5" stroke-linecap="round" stroke-linejoin="round"/>
<path d="M5.125 10.25H35.875" stroke="#FFF6E7" stroke-width="5" stroke-linecap="round" stroke-linejoin="round"/>
<path d="M27.3334 17.0834C27.3334 18.8957 26.6135 20.6338 25.332 21.9153C24.0505 23.1968 22.3124 23.9167 20.5001 23.9167C18.6878 23.9167 16.9497 23.1968 15.6682 21.9153C14.3867 20.6338 13.6667 18.8957 13.6667 17.0834" stroke="#FFF6E7" stroke-width="5" stroke-linecap="round" stroke-linejoin="round"/>
</svg>
