<svg width="128" height="146" viewBox="0 0 128 146" fill="none" xmlns="http://www.w3.org/2000/svg">
<path d="M38.6286 5.04727L36.5714 9.125H9.14286C4.08571 9.125 0 13.2027 0 18.25C0 23.2973 4.08571 27.375 9.14286 27.375H118.857C123.914 27.375 128 23.2973 128 18.25C128 13.2027 123.914 9.125 118.857 9.125H91.4286L89.3714 5.04727C87.8286 1.93906 84.6571 0 81.2 0H46.8C43.3429 0 40.1714 1.93906 38.6286 5.04727ZM118.857 36.5H9.14286L15.2 133.168C15.6571 140.382 21.6571 146 28.8857 146H99.1143C106.343 146 112.343 140.382 112.8 133.168L118.857 36.5Z" fill="#EB6363"/>
</svg>
