<svg width="1920" height="1136" viewBox="0 0 1920 1136" fill="none" xmlns="http://www.w3.org/2000/svg">
<path fill-rule="evenodd" clip-rule="evenodd" d="M2032.21 1049.48L1274.9 1126.67C1103.27 1136.36 760.01 1155.75 655.005 1073.99C550 992.236 683.248 809.336 816.496 626.436C949.744 443.536 1082.99 260.637 918.423 204.167C753.855 147.697 291.472 217.656 60.2794 252.636L-206.015 294.795L-64.0316 49.0557L1437.29 -395.104L1557.45 -350.761C1580.18 -297.24 2196.75 -356.042 2242.19 -248.999C2287.63 -141.958 2088.56 118.387 2134 225.429C2179.44 332.471 2011.36 456.952 2056.8 563.994C2102.24 671.036 1937.15 782.358 1959.87 835.879L1982.59 889.4L2032.21 1049.48Z" fill="#FFC7B8"/>
</svg>
