<svg width="1920" height="822" viewBox="0 0 1920 822" fill="none" xmlns="http://www.w3.org/2000/svg">
<path fill-rule="evenodd" clip-rule="evenodd" d="M-215.004 127.088L-142.631 98.5155C-72.3455 69.617 70.313 12.1464 198.199 2.22451C328.173 -7.37098 441.286 30.2557 545.535 96.4116C649.785 162.568 745.171 257.253 858.284 294.879C971.397 332.506 1104.33 313.401 1244.03 265.44C1383.73 217.479 1532.3 140.989 1642.46 188.126C1752.62 235.262 1824.37 406.025 1930.71 472.507C2034.95 538.663 2171.7 500.212 2239.03 480.823L2308.45 461.761L2090.24 1128.36L1823.66 1128.36C1765.19 1119.22 1578.02 1146.97 1459 1128.36C1337.89 1109.43 1217.31 1146.97 1098.29 1128.36C979.269 1109.75 977.306 1146.97 858.284 1128.36C739.262 1109.75 567.058 1146.97 448.036 1128.36C329.014 1109.75 123.342 1146.97 4.32005 1128.36C-114.702 1109.75 -147.075 368.005 -268.185 349.071C-387.207 330.464 -149.163 316.87 -207.63 307.729L-268.185 298.263L-215.004 127.088Z" fill="#FFA09A"/>
</svg>
