<svg width="1920" height="1049" viewBox="0 0 1920 1049" fill="none" xmlns="http://www.w3.org/2000/svg">
<path fill-rule="evenodd" clip-rule="evenodd" d="M2008.68 1014.26L1371.64 1048.45C1226.87 1048.83 937.327 1049.58 844.265 966.921C751.203 884.264 854.621 718.197 958.038 552.13C1061.46 386.063 1164.87 219.996 1022.69 158.192C880.509 96.387 492.728 138.844 298.838 160.073L-130.478 219.1L-40.9229 -20.5383L1431.18 -381.714L1535.16 -333.646C1557.13 -281.892 2075.98 -305.908 2119.93 -202.398C2163.87 -98.8889 2008.7 137.014 2052.65 240.524C2096.59 344.034 1960.69 453.096 2004.63 556.605C2048.58 660.115 1914.55 756.891 1936.52 808.646L1958.49 860.401L2008.68 1014.26Z" fill="#FFA09A"/>
</svg>
