<svg width="1920" height="871" viewBox="0 0 1920 871" fill="none" xmlns="http://www.w3.org/2000/svg">
<path fill-rule="evenodd" clip-rule="evenodd" d="M-171.3 127.127L-98.9267 98.5548C-28.6416 69.6563 114.017 12.1857 241.903 2.26381C371.876 -7.33167 484.99 30.295 589.239 96.4509C693.489 162.607 788.875 257.292 901.988 294.919C1015.1 332.545 1148.03 313.44 1287.73 265.479C1427.44 217.518 1576 141.028 1686.16 188.165C1796.32 235.301 1868.07 406.064 1974.41 472.547C2078.66 538.702 2215.41 500.251 2282.74 480.863L2352.16 461.8L2133.94 1128.4L1867.36 1128.4C1808.89 1119.26 1621.72 1147.01 1502.7 1128.4C1381.59 1109.47 1261.02 1147.01 1141.99 1128.4C1022.97 1109.79 1021.01 1147.01 901.988 1128.4C782.966 1109.79 610.762 1147.01 491.74 1128.4C372.718 1109.79 167.046 1147.01 48.0239 1128.4C-70.9983 1109.79 -103.371 368.044 -224.481 349.111C-343.504 330.503 -105.459 316.909 -163.926 307.769L-224.481 298.302L-171.3 127.127Z" fill="#FFC7B8"/>
</svg>
