<svg width="1440" height="995" viewBox="0 0 1440 995" fill="none" xmlns="http://www.w3.org/2000/svg">
<path fill-rule="evenodd" clip-rule="evenodd" d="M1443 995L1090.96 965.99C991.026 952.197 791.155 924.609 718.826 842.876C646.496 761.144 701.709 625.267 756.922 489.39C812.135 353.513 867.348 217.637 763.134 149.441C658.919 81.2447 395.277 80.729 263.456 80.4712L-3.49986 89.0001L-3.4999 5.11356e-05L968 3.39481e-05L1443 1.37429e-05C1443 62.5001 1443 -15.5 1443 98C1436.5 235.5 1443 149.441 1443 248.5C1443 368.5 1443 387.5 1443 489.39C1443 599.5 1443 634.223 1443 669C1443 709.5 1443 853.5 1443 853.5L1443 995Z" fill="#FFA09A"/>
</svg>
