<svg width="744" height="573" viewBox="0 0 744 573" fill="none" xmlns="http://www.w3.org/2000/svg">
<path fill-rule="evenodd" clip-rule="evenodd" d="M837.067 572.925L561.562 564.143C498.631 558.747 372.77 547.954 328.721 506.361C284.671 464.768 322.434 392.374 360.197 319.981C397.959 247.587 435.722 175.193 371.22 141.301C306.717 107.408 139.95 112.016 56.5664 114.32L-39.3594 117.79L-2.33796 18.445L525.414 -91.2809L572.708 -65.1753C584.506 -40.5287 809.066 -31.6136 832.662 17.6796C856.258 66.9728 799.025 169.493 822.621 218.786C846.218 268.079 791.86 313.007 815.456 362.301C839.053 411.594 784.973 450.944 796.771 475.591L808.57 500.237L837.067 572.925Z" fill="#FFC7B8"/>
</svg>
