<svg width="744" height="535" viewBox="0 0 744 535" fill="none" xmlns="http://www.w3.org/2000/svg">
<path fill-rule="evenodd" clip-rule="evenodd" d="M862.936 534.913L615.023 518.748C558.274 511.801 444.775 497.908 403.703 456.748C362.63 415.588 393.983 347.161 425.336 278.734C456.689 210.307 488.042 141.88 428.863 107.537C369.684 73.1936 219.973 72.9339 145.118 72.8041L-19.9628 77.838L1.87812 -23.836L559.136 -111.378L602.571 -84.9921C614.054 -61.0036 816.187 -46.1409 839.153 1.83591C862.119 49.8127 814.343 146.61 837.31 194.586C860.276 242.563 813.028 284.162 835.994 332.138C858.96 380.115 811.764 416.367 823.247 440.356L834.73 464.344L862.936 534.913Z" fill="#FFA09A"/>
</svg>
